<svg width="1600" height="900" viewBox="0 0 1600 900" fill="none" xmlns="http://www.w3.org/2000/svg">
  <defs>
    <linearGradient id="bg" x1="166" y1="76" x2="1412" y2="866" gradientUnits="userSpaceOnUse">
      <stop offset="0" stop-color="#0C1117"/>
      <stop offset="0.32" stop-color="#161118"/>
      <stop offset="0.64" stop-color="#1C1820"/>
      <stop offset="1" stop-color="#0A0F14"/>
    </linearGradient>
    <radialGradient id="ember" cx="0" cy="0" r="1" gradientUnits="userSpaceOnUse" gradientTransform="translate(406 252) rotate(90) scale(242 242)">
      <stop stop-color="#FFCA7B"/>
      <stop offset="0.42" stop-color="#FF7E3F" stop-opacity="0.9"/>
      <stop offset="1" stop-color="#FF7E3F" stop-opacity="0"/>
    </radialGradient>
    <radialGradient id="aqua" cx="0" cy="0" r="1" gradientUnits="userSpaceOnUse" gradientTransform="translate(300 566) rotate(90) scale(326 278)">
      <stop stop-color="#89F3E0" stop-opacity="0.88"/>
      <stop offset="1" stop-color="#89F3E0" stop-opacity="0"/>
    </radialGradient>
    <radialGradient id="violet" cx="0" cy="0" r="1" gradientUnits="userSpaceOnUse" gradientTransform="translate(1206 290) rotate(90) scale(342 292)">
      <stop stop-color="#9FA8FF" stop-opacity="0.8"/>
      <stop offset="1" stop-color="#9FA8FF" stop-opacity="0"/>
    </radialGradient>
    <linearGradient id="glassWarm" x1="0" y1="0" x2="0" y2="1">
      <stop stop-color="#FFD5A2" stop-opacity="0.26"/>
      <stop offset="1" stop-color="#FF9D5A" stop-opacity="0.06"/>
    </linearGradient>
    <linearGradient id="glassCool" x1="0" y1="0" x2="0" y2="1">
      <stop stop-color="#A8FFF2" stop-opacity="0.28"/>
      <stop offset="1" stop-color="#59CFC5" stop-opacity="0.05"/>
    </linearGradient>
    <linearGradient id="glassBlue" x1="0" y1="0" x2="0" y2="1">
      <stop stop-color="#BFD0FF" stop-opacity="0.28"/>
      <stop offset="1" stop-color="#5C78D4" stop-opacity="0.05"/>
    </linearGradient>
    <linearGradient id="beam" x1="176" y1="440" x2="1472" y2="476" gradientUnits="userSpaceOnUse">
      <stop stop-color="#FFF4D6" stop-opacity="0"/>
      <stop offset="0.18" stop-color="#FFE8AD" stop-opacity="0.82"/>
      <stop offset="0.54" stop-color="#FFFFFF"/>
      <stop offset="0.82" stop-color="#8BEAE0" stop-opacity="0.84"/>
      <stop offset="1" stop-color="#8BEAE0" stop-opacity="0"/>
    </linearGradient>
    <filter id="blur28" x="-120" y="-120" width="1840" height="1140" filterUnits="userSpaceOnUse" color-interpolation-filters="sRGB">
      <feGaussianBlur stdDeviation="28"/>
    </filter>
    <filter id="blur12" x="-40" y="-40" width="1680" height="980" filterUnits="userSpaceOnUse" color-interpolation-filters="sRGB">
      <feGaussianBlur stdDeviation="12"/>
    </filter>
    <filter id="shadow" x="0" y="0" width="1600" height="900" filterUnits="userSpaceOnUse" color-interpolation-filters="sRGB">
      <feDropShadow dx="0" dy="8" stdDeviation="16" flood-color="#000000" flood-opacity="0.34"/>
    </filter>
  </defs>

  <rect width="1600" height="900" fill="url(#bg)"/>
  <g filter="url(#blur28)" opacity="0.94">
    <circle cx="414" cy="258" r="188" fill="url(#ember)"/>
    <ellipse cx="296" cy="574" rx="242" ry="210" fill="url(#aqua)"/>
    <ellipse cx="1214" cy="292" rx="246" ry="208" fill="url(#violet)"/>
    <ellipse cx="1388" cy="708" rx="244" ry="176" fill="#F38E48" fill-opacity="0.24"/>
  </g>

  <g opacity="0.24">
    <path d="M0 110H1600" stroke="white" stroke-opacity="0.12"/>
    <path d="M0 210H1600" stroke="white" stroke-opacity="0.08"/>
    <path d="M0 310H1600" stroke="white" stroke-opacity="0.05"/>
    <path d="M0 410H1600" stroke="white" stroke-opacity="0.04"/>
    <path d="M0 510H1600" stroke="white" stroke-opacity="0.04"/>
    <path d="M0 610H1600" stroke="white" stroke-opacity="0.03"/>
    <path d="M0 710H1600" stroke="white" stroke-opacity="0.03"/>
  </g>

  <g filter="url(#shadow)">
    <rect x="106" y="132" width="174" height="548" rx="10" fill="url(#glassCool)"/>
    <rect x="260" y="96" width="252" height="650" rx="10" fill="url(#glassWarm)"/>
    <rect x="584" y="118" width="136" height="622" rx="10" fill="url(#glassCool)"/>
    <rect x="776" y="196" width="228" height="374" rx="8" fill="url(#glassBlue)"/>
    <rect x="1040" y="84" width="172" height="610" rx="10" fill="url(#glassBlue)"/>
    <rect x="1282" y="120" width="132" height="540" rx="10" fill="url(#glassWarm)"/>
    <rect x="1422" y="74" width="126" height="682" rx="10" fill="url(#glassWarm)"/>
  </g>

  <g filter="url(#blur12)" opacity="0.84">
    <path d="M56 472C138 420 185 346 258 350C338 354 390 430 470 438C562 448 638 396 722 404C800 412 864 480 954 486C1064 494 1154 416 1242 420C1326 424 1396 492 1492 498C1540 500 1574 486 1600 466" stroke="url(#beam)" stroke-width="18" stroke-linecap="round"/>
    <path d="M116 454C212 476 304 438 386 464C476 494 542 554 626 552C712 550 774 474 862 466C978 454 1096 518 1238 522C1376 526 1486 470 1600 446" stroke="url(#beam)" stroke-opacity="0.72" stroke-width="10" stroke-linecap="round"/>
  </g>

  <g opacity="0.55">
    <path d="M170 526C212 382 272 340 320 330C356 322 402 354 438 394C476 438 516 492 562 498C616 504 658 448 696 404" stroke="#FCF1DD" stroke-opacity="0.34" stroke-width="2"/>
    <path d="M1052 420C1090 380 1130 360 1184 360C1254 360 1310 410 1360 444C1414 480 1480 520 1562 514" stroke="#CCE6FF" stroke-opacity="0.4" stroke-width="2"/>
    <path d="M1204 218C1238 198 1264 186 1296 184C1338 182 1368 214 1392 248" stroke="#FBE2B9" stroke-opacity="0.44" stroke-width="2"/>
  </g>

  <g opacity="0.66">
    <path d="M748 256H986V560H748V256Z" fill="#0B1320" fill-opacity="0.46" stroke="#D4E7FF" stroke-opacity="0.22"/>
    <path d="M758 270C796 298 826 314 864 318C900 322 936 312 976 290V548H758V270Z" fill="#A6B8FF" fill-opacity="0.24"/>
    <path d="M784 490C828 448 862 420 912 420C946 420 978 438 1002 466" stroke="#FFE19E" stroke-opacity="0.4" stroke-width="3"/>
    <path d="M806 332H924" stroke="#90F0E0" stroke-opacity="0.62" stroke-width="4" stroke-linecap="round"/>
    <path d="M806 362H954" stroke="#90F0E0" stroke-opacity="0.34" stroke-width="4" stroke-linecap="round"/>
    <path d="M806 392H898" stroke="#90F0E0" stroke-opacity="0.26" stroke-width="4" stroke-linecap="round"/>
  </g>

  <g opacity="0.56">
    <circle cx="442" cy="342" r="112" fill="url(#ember)" stroke="#FFE1A6" stroke-opacity="0.28"/>
    <path d="M412 314C440 292 472 292 500 314" stroke="#FFF7E4" stroke-opacity="0.46" stroke-width="3" stroke-linecap="round"/>
    <path d="M390 350C430 386 482 394 532 374" stroke="#FFF7E4" stroke-opacity="0.3" stroke-width="3" stroke-linecap="round"/>
  </g>

  <g fill="#11151B" opacity="0.94">
    <path d="M452 706C452 676 470 648 498 648C526 648 544 676 544 706V808H452V706Z"/>
    <rect x="484" y="616" width="24" height="48" rx="12"/>
    <path d="M1316 726C1316 702 1330 684 1352 684C1374 684 1388 702 1388 726V808H1316V726Z"/>
    <rect x="1342" y="660" width="16" height="30" rx="8"/>
    <path d="M912 690C912 666 926 648 948 648C970 648 984 666 984 690V808H912V690Z"/>
    <rect x="938" y="628" width="16" height="28" rx="8"/>
  </g>

  <g opacity="0.46">
    <circle cx="174" cy="576" r="12" fill="#0F141A"/>
    <circle cx="176" cy="530" r="8" fill="#0F141A"/>
    <circle cx="206" cy="546" r="14" fill="#0F141A"/>
    <circle cx="242" cy="586" r="16" fill="#0F141A"/>
    <circle cx="266" cy="532" r="9" fill="#0F141A"/>
    <circle cx="288" cy="578" r="18" fill="#0F141A"/>
    <circle cx="316" cy="542" r="13" fill="#0F141A"/>
    <circle cx="354" cy="570" r="22" fill="#0F141A"/>
    <path d="M174 588V646M206 560V640M242 602V654M266 544V632M288 590V652M316 554V636M354 590V648" stroke="#192128" stroke-width="4"/>
  </g>

  <g opacity="0.42">
    <circle cx="388" cy="168" r="2" fill="#FFD5A0"/>
    <circle cx="426" cy="152" r="1.8" fill="#FFD5A0"/>
    <circle cx="468" cy="146" r="1.4" fill="#FFD5A0"/>
    <circle cx="522" cy="164" r="1.9" fill="#FFD5A0"/>
    <circle cx="570" cy="198" r="1.4" fill="#FFD5A0"/>
    <circle cx="636" cy="220" r="1.4" fill="#96F2E1"/>
    <circle cx="708" cy="164" r="1.3" fill="#96F2E1"/>
    <circle cx="1168" cy="146" r="1.8" fill="#D9D6FF"/>
    <circle cx="1208" cy="174" r="1.4" fill="#D9D6FF"/>
    <circle cx="1262" cy="158" r="1.5" fill="#D9D6FF"/>
    <circle cx="1440" cy="240" r="1.4" fill="#FFD9A8"/>
  </g>

  <rect x="0" y="0" width="1600" height="900" fill="url(#bg)" fill-opacity="0.12"/>
</svg>
